<?xml version="1.0" standalone="no"?><!DOCTYPE svg PUBLIC "-//W3C//DTD SVG 1.1//EN" "http://www.w3.org/Graphics/SVG/1.1/DTD/svg11.dtd"><svg class="icon" width="200px" height="195.23px" viewBox="0 0 1049 1024" version="1.1" xmlns="http://www.w3.org/2000/svg"><path d="M363.82151 162.086l-96.96-93.983S251.71351 49.46 277.34551 28.36c25.761-20.972 27.056-11.651 35.73-5.826 8.672 5.826 144.21 139.551 144.21 139.551H363.82151z m322.081 3.496l96.961-93.984s15.146-18.641-10.486-39.742c-25.632-20.972-27.056-11.651-35.729-5.826-8.673 5.826-144.212 139.552-144.212 139.552h93.466z"  /><path d="M1049.79751 339.568c-3.495-147.19-131.396-175.152-131.396-175.152s-655.295-5.307-791.998 0C-10.30049 202.994 0.18551 339.568 0.18551 339.568s1.813 292.565-0.13 440.66C14.81451 928.324 128.99351 951.884 128.99351 951.884s45.567 0.906 78.837 0.906c3.495 9.58 6.084 56.054 57.866 56.054 51.652 0 57.866-56.054 57.866-56.054s378.523-1.812 409.98-1.812c1.812 15.793 9.58 58.643 61.361 57.866 51.652-0.906 55.148-61.361 55.148-61.361s17.476-1.813 70.034 0c122.593-22.784 129.713-166.478 129.713-166.478s-1.683-294.248 0-441.437zM944.29151 808.06c0 23.172-18.382 42.072-41.037 42.072H157.21351c-22.655 0-41.037-18.77-41.037-42.072V313.936c0-23.173 18.382-42.073 41.037-42.073h746.042c22.655 0 41.037 18.771 41.037 42.073V808.06z"  /><path d="M194.75451 453.487L413.79151 411.414l16.57 82.333-217.223 42.073z m681.575 0l-219.036-42.073-16.7 82.333 217.353 42.073zM430.36051 657.636s48.157 86.734 101.622-28.092c51.652 112.107 108.611 29.774 108.611 29.774l32.364 21.101s-60.455 97.22-140.199 23.69c-67.445 73.53-138.386-23.43-138.386-23.43l35.988-23.043z"  /></svg>